<?xml version="1.0" encoding="utf-8"?>
<!-- Generator: Adobe Illustrator 27.2.0, SVG Export Plug-In . SVG Version: 6.00 Build 0)  -->
<svg version="1.1" id="Layer_1" xmlns="http://www.w3.org/2000/svg" xmlns:xlink="http://www.w3.org/1999/xlink" x="0px" y="0px"
	 viewBox="0 0 1000 1000" style="enable-background:new 0 0 1000 1000;" xml:space="preserve">
<style type="text/css">
	.st0{fill:#E2E8E8;}
	.st1{fill:#1A434C;}
</style>
<rect class="st0" width="1000" height="1000"/>
<g>
	<g>
		<path class="st1" d="M401.3,539.31h-26.18v-7.14h2.05c2.23,0,3.6-0.31,4.12-0.92c0.52-0.62,0.77-1.89,0.77-3.82v-21.03H351.4
			v20.13c0,1.7,0.07,2.9,0.22,3.6s0.56,1.22,1.22,1.55c0.67,0.33,1.75,0.5,3.25,0.5h2.25v7.14h-26.18v-7.14h2.55
			c1.96,0,3.19-0.3,3.67-0.9c0.48-0.6,0.72-1.88,0.72-3.85v-46.86c0-1.86-0.26-3.11-0.77-3.75c-0.52-0.63-1.82-0.95-3.92-0.95h-2.25
			v-7.14h26.18v7.14h-2.25c-2.1,0-3.41,0.34-3.92,1.02c-0.52,0.68-0.77,1.91-0.77,3.67v16.58h30.67v-16.58
			c0-1.83-0.26-3.07-0.77-3.72c-0.52-0.65-1.89-0.97-4.12-0.97h-2.05v-7.14h26.18v7.14h-2.25c-2.07,0-3.35,0.28-3.85,0.85
			s-0.75,1.85-0.75,3.85v46.86c0,1.9,0.26,3.16,0.77,3.8c0.52,0.63,1.79,0.95,3.82,0.95h2.25V539.31z"/>
		<path class="st1" d="M457.05,496.55c-1.83,0-3.1,0.27-3.8,0.8c-0.7,0.53-1.55,2-2.55,4.4l-19.53,46.76
			c-2.36,5.66-4.94,9.37-7.72,11.12c-2.78,1.75-5.74,2.62-8.87,2.62c-3.3,0-6.74-0.75-10.34-2.25V548.1h7.89v1.65
			c0,2.86,1.1,4.3,3.3,4.3c3.33,0,6.43-4.91,9.29-14.74l-15.24-36.12c-0.87-2.1-1.59-3.6-2.17-4.5c-0.58-0.9-1.25-1.48-2-1.75
			c-0.75-0.27-1.86-0.4-3.32-0.4V490h24.38v6.54h-1.65c-2.27,0-3.4,0.62-3.4,1.85c0,0.7,0.28,1.62,0.85,2.75
			c0-0.03,0.03,0.02,0.08,0.15c0.05,0.13,0.11,0.3,0.17,0.5c0.07,0.2,0.12,0.33,0.15,0.4l8.79,22.58l8.29-21.58
			c0.1-0.43,0.23-0.77,0.4-1c0.53-1.43,0.8-2.63,0.8-3.6c0-0.93-0.38-1.51-1.12-1.72c-0.75-0.22-1.94-0.33-3.57-0.33V490h20.88
			V496.55z"/>
		<path class="st1" d="M507.27,545.45c0,2.9-0.75,5.53-2.25,7.89c-1.5,2.36-3.51,4.26-6.04,5.69c-4.33,2.33-10.47,3.5-18.43,3.5
			c-4.83,0-9.04-0.35-12.64-1.05s-6.46-1.94-8.59-3.72c-2.13-1.78-3.2-4.22-3.2-7.32c0-2.76,1.04-5.15,3.12-7.17
			c2.08-2.02,4.69-3.31,7.82-3.87v-0.2c-3.9-1.27-5.84-3.61-5.84-7.04c0-1.7,0.41-3.12,1.22-4.27c0.82-1.15,1.84-2.09,3.07-2.82
			c1.23-0.73,2.76-1.48,4.6-2.25c-3.26-1.53-5.74-3.67-7.44-6.42c-1.7-2.75-2.55-5.89-2.55-9.42c0-2.7,0.43-5.18,1.3-7.44
			c0.87-2.26,2.16-4.22,3.87-5.87c1.71-1.65,3.92-2.95,6.62-3.9c2.7-0.95,5.76-1.42,9.19-1.42c3.23,0,6.49,0.55,9.79,1.65h16.29
			v7.79h-8.19c1.83,2.6,2.75,5.79,2.75,9.59c0,2.13-0.32,4.16-0.95,6.09c-0.63,1.93-1.52,3.63-2.65,5.1
			c-1.13,1.47-2.48,2.65-4.05,3.55c-1.67,1-3.35,1.67-5.05,2.02s-4.21,0.62-7.54,0.82c-2.56,0.13-4.67,0.44-6.32,0.92
			s-2.47,1.41-2.47,2.77c0,1.17,0.66,1.98,1.97,2.45c1.32,0.47,3.27,0.78,5.87,0.95c0.17,0,0.95,0.02,2.35,0.08
			c1.4,0.05,2.79,0.1,4.17,0.15c1.38,0.05,2.16,0.08,2.32,0.08c4.73,0.17,8.89,1.06,12.49,2.67
			C505.47,536.65,507.27,540.12,507.27,545.45z M496.13,548.1c0-1.93-1.1-3.36-3.3-4.27c-2.2-0.92-5.88-1.37-11.04-1.37
			c-9.56,0-14.34,2.08-14.34,6.24c0,2.3,1.39,3.95,4.17,4.95c2.78,1,6.17,1.5,10.17,1.5c3.33,0,6.55-0.5,9.67-1.5
			C494.57,552.65,496.13,550.8,496.13,548.1z M490.28,506.49c0-3.2-0.66-5.96-1.97-8.29c-1.32-2.33-3.79-3.5-7.42-3.5
			c-3.73,0-6.19,1.39-7.37,4.17c-1.18,2.78-1.77,5.52-1.77,8.22c0,2.96,0.78,5.58,2.35,7.84c1.56,2.26,3.93,3.4,7.09,3.4
			c2.7,0,4.89-1.02,6.57-3.07S490.28,510.29,490.28,506.49z"/>
		<path class="st1" d="M536.59,539.31h-23.43v-6.54h2.45c1.63,0,2.67-0.24,3.12-0.72c0.45-0.48,0.67-1.71,0.67-3.67v-24.48
			c0-2.9-0.19-4.71-0.57-5.45c-0.38-0.73-1.49-1.1-3.32-1.1h-2.95v-6.54l18.43-1.65v38.16c0,1.87,0.06,3.13,0.17,3.8
			c0.12,0.67,0.45,1.11,1,1.32c0.55,0.22,1.52,0.32,2.92,0.32h1.5V539.31z M531.49,473.52c0,1.23-0.32,2.37-0.95,3.4
			c-0.63,1.03-1.52,1.83-2.65,2.4c-1.13,0.57-2.43,0.85-3.9,0.85c-2.13,0-3.89-0.6-5.27-1.8c-1.38-1.2-2.07-2.78-2.07-4.75
			c0-2,0.71-3.59,2.12-4.77c1.42-1.18,3.19-1.77,5.32-1.77c2.17,0,3.94,0.59,5.32,1.77C530.8,470.03,531.49,471.59,531.49,473.52z"
			/>
		<path class="st1" d="M583.85,515.68h-32.32c0,3.36,0.62,6.23,1.87,8.59c1.25,2.37,2.94,4.15,5.07,5.34c2.13,1.2,4.48,1.8,7.04,1.8
			c3.33,0,6.16-0.54,8.49-1.62c2.33-1.08,4.9-2.59,7.69-4.52c0.1-0.07,0.27-0.19,0.5-0.38c0.23-0.18,0.4-0.29,0.5-0.32v9.84
			c-1.67,1.2-3.25,2.2-4.75,3c-1.5,0.8-3.6,1.57-6.29,2.32s-5.76,1.12-9.19,1.12c-5.59,0-10.12-1.29-13.59-3.87
			c-3.46-2.58-5.94-5.82-7.42-9.72c-1.48-3.9-2.22-7.83-2.22-11.79c0-3.56,0.51-6.96,1.52-10.19c1.02-3.23,2.51-6.12,4.5-8.67
			c1.98-2.55,4.47-4.56,7.47-6.04s6.41-2.22,10.24-2.22c3.2,0,6.51,0.71,9.94,2.12c3.43,1.42,6.19,4.22,8.29,8.42
			c1.8,3.56,2.7,8.23,2.7,13.99c0,0.67-0.01,1.19-0.02,1.57C583.86,514.84,583.85,515.25,583.85,515.68z M571.86,507.59
			c-0.27-7.83-3.36-11.74-9.29-11.74c-5.89,0-9.47,3.91-10.74,11.74H571.86z"/>
	</g>
	<g>
		<path class="st1" d="M826.09,486.4c-0.67-1.08-1.2-1.83-1.6-2.26c-0.4-0.42-0.9-0.81-1.5-1.17c1.22-0.18,2.14-0.61,2.75-1.28
			c0.61-0.68,0.92-1.54,0.92-2.58c0-0.82-0.2-1.55-0.61-2.19c-0.4-0.64-0.94-1.08-1.62-1.33c-0.67-0.25-1.75-0.37-3.24-0.37h-5.91
			v13.9h2.81v-5.8h0.57c0.64,0,1.12,0.05,1.41,0.16c0.3,0.1,0.58,0.3,0.84,0.58c0.27,0.28,0.76,0.96,1.48,2.04l2.03,3.02h3.36
			L826.09,486.4z M820.18,481.09h-2.08v-3.53h2.19c1.14,0,1.82,0.02,2.05,0.05c0.45,0.08,0.81,0.26,1.06,0.54
			c0.25,0.29,0.37,0.67,0.37,1.13c0,0.42-0.09,0.76-0.28,1.04c-0.19,0.28-0.45,0.47-0.79,0.59
			C822.36,481.04,821.52,481.09,820.18,481.09z"/>
		<path class="st1" d="M820.29,468.74c-7.49,0-13.58,6.09-13.58,13.58c0,7.49,6.09,13.57,13.58,13.57c7.49,0,13.57-6.09,13.57-13.57
			C833.87,474.83,827.78,468.74,820.29,468.74z M820.29,492.74c-5.75,0-10.43-4.68-10.43-10.42c0-5.75,4.68-10.43,10.43-10.43
			c5.75,0,10.42,4.68,10.42,10.43C830.72,488.06,826.04,492.74,820.29,492.74z"/>
	</g>
	<g>
		<path class="st1" d="M642.45,469.43v14.63h-4.5v-4.5c0-1.23-0.07-2.2-0.2-2.92c-0.14-0.72-0.43-1.26-0.87-1.64
			c-0.44-0.37-1.06-0.61-1.84-0.72c-0.78-0.1-1.83-0.15-3.12-0.15h-26.91v26.8h18.93c1.5,0,2.64-0.08,3.43-0.26
			c0.78-0.17,1.36-0.51,1.74-1.02c0.37-0.51,0.6-1.23,0.67-2.15c0.07-0.92,0.1-2.16,0.1-3.73h3.79v19.13h-3.79v-2.46
			c0-1.09-0.07-1.98-0.21-2.66c-0.14-0.68-0.43-1.19-0.87-1.53c-0.44-0.34-1.11-0.58-2-0.72c-0.89-0.14-2.08-0.21-3.58-0.21h-18.21
			v25.07c0,1.16,0.03,2.08,0.1,2.76c0.07,0.68,0.26,1.21,0.56,1.59c0.31,0.38,0.77,0.63,1.38,0.77c0.61,0.14,1.5,0.2,2.66,0.2h2.97
			v3.58h-20.87v-3.58h2.25c1.16,0,2.06-0.08,2.71-0.26c0.65-0.17,1.12-0.49,1.43-0.97c0.31-0.48,0.48-1.12,0.51-1.94
			c0.03-0.82,0.05-1.88,0.05-3.17v-51.26c0-1.02-0.04-1.86-0.1-2.51c-0.07-0.65-0.27-1.18-0.61-1.59c-0.34-0.41-0.85-0.68-1.53-0.82
			c-0.68-0.14-1.64-0.2-2.86-0.2h-1.84v-3.58H642.45z"/>
		<path class="st1" d="M661.68,531.12c0,1.16,0.02,2.06,0.05,2.71c0.03,0.65,0.19,1.12,0.46,1.43c0.27,0.31,0.7,0.51,1.28,0.61
			c0.58,0.1,1.38,0.15,2.4,0.15h1.74v3.27h-17.49v-3.27h1.43c1.16,0,2.06-0.05,2.71-0.15c0.65-0.1,1.11-0.32,1.38-0.67
			c0.27-0.34,0.42-0.83,0.46-1.48c0.03-0.65,0.05-1.52,0.05-2.61v-53.2c0-1.29-0.02-2.34-0.05-3.12c-0.04-0.78-0.17-1.36-0.41-1.74
			c-0.24-0.37-0.65-0.6-1.23-0.67c-0.58-0.07-1.38-0.07-2.4,0l-3.27,0.31v-3.48l12.89-1.53V531.12z"/>
		<path class="st1" d="M694.32,490.1c4.09,0,7.55,0.73,10.38,2.2c2.83,1.47,5.12,3.34,6.85,5.63c1.74,2.29,2.98,4.86,3.73,7.72
			c0.75,2.86,1.13,5.7,1.13,8.49c0,3.27-0.27,6.1-0.82,8.49c-0.55,2.39-1.23,4.43-2.05,6.14c-0.82,1.71-1.72,3.12-2.71,4.25
			c-0.99,1.12-1.93,2.06-2.81,2.81c-2.25,1.84-4.62,3.12-7.11,3.84c-2.49,0.72-4.93,1.07-7.31,1.07c-2.73,0-5.42-0.43-8.08-1.28
			c-2.66-0.85-5.05-2.25-7.16-4.19c-2.12-1.94-3.82-4.45-5.12-7.52c-1.3-3.07-1.94-6.85-1.94-11.36c0-4.64,0.63-8.63,1.89-11.97
			c1.26-3.34,2.95-6.07,5.06-8.18c2.11-2.11,4.57-3.67,7.37-4.66C688.42,490.59,691.32,490.1,694.32,490.1z M693.71,494.5
			c-0.96,0-2.34,0.2-4.14,0.61c-1.81,0.41-3.62,1.33-5.42,2.76c-1.81,1.43-3.39,3.58-4.76,6.45c-1.37,2.86-2.05,6.75-2.05,11.66
			c0,4.71,0.72,8.42,2.15,11.15c1.43,2.73,3.08,4.78,4.96,6.14c1.88,1.37,3.75,2.22,5.63,2.56c1.88,0.34,3.26,0.51,4.14,0.51
			c1.29,0,2.86-0.24,4.71-0.72c1.84-0.48,3.61-1.45,5.32-2.92c1.7-1.47,3.14-3.58,4.3-6.34c1.16-2.76,1.74-6.43,1.74-11
			c0-0.54-0.02-1.43-0.05-2.66c-0.04-1.23-0.21-2.61-0.51-4.14c-0.31-1.53-0.8-3.14-1.48-4.81c-0.68-1.67-1.64-3.19-2.86-4.55
			c-1.23-1.36-2.8-2.49-4.71-3.38C698.75,494.94,696.43,494.5,693.71,494.5z"/>
		<path class="st1" d="M729.72,491.43c0.07,0.82,0.12,1.5,0.15,2.05c0.03,0.55,0.07,1.06,0.1,1.53c0.03,0.48,0.07,0.97,0.1,1.48
			c0.03,0.51,0.05,1.18,0.05,2c0.68-0.75,1.48-1.59,2.4-2.51c0.92-0.92,2.03-1.79,3.33-2.61c1.29-0.82,2.78-1.5,4.45-2.05
			c1.67-0.55,3.6-0.82,5.78-0.82c2.93,0,5.63,0.55,8.08,1.64c2.46,1.09,4.55,2.66,6.29,4.71c1.74,2.05,3.08,4.52,4.04,7.42
			c0.95,2.9,1.43,6.19,1.43,9.87c0,3.34-0.44,6.6-1.33,9.77c-0.89,3.17-2.2,5.99-3.94,8.44s-3.91,4.43-6.5,5.93
			c-2.59,1.5-5.63,2.25-9.11,2.25c-2.25,0-4.21-0.26-5.88-0.77c-1.67-0.51-3.09-1.16-4.25-1.94c-1.16-0.78-2.1-1.6-2.81-2.46
			c-0.72-0.85-1.31-1.58-1.79-2.2h-0.21v19.23c0,1.23,0.02,2.2,0.05,2.92c0.03,0.72,0.17,1.26,0.41,1.64
			c0.24,0.37,0.63,0.61,1.18,0.72c0.54,0.1,1.29,0.15,2.25,0.15h2.76V561h-17.9v-3.17h1.64c0.88,0,1.6-0.02,2.15-0.05
			c0.54-0.04,0.97-0.22,1.28-0.56c0.31-0.34,0.49-0.96,0.56-1.84c0.07-0.89,0.1-2.15,0.1-3.79v-50.73c0-2.05-0.07-3.45-0.2-4.2
			c-0.14-0.75-0.85-1.09-2.15-1.02l-4.09,0.2v-2.97L729.72,491.43z M744.86,494.91c-0.21,0-0.65,0.04-1.33,0.1
			c-0.68,0.07-1.45,0.21-2.3,0.41c-0.85,0.21-1.77,0.55-2.76,1.03c-0.99,0.48-1.93,1.13-2.81,1.95c-1.37,1.23-2.44,2.66-3.22,4.27
			c-0.78,1.61-1.38,3.24-1.79,4.88c-0.41,1.64-0.68,3.26-0.82,4.83c-0.14,1.58-0.21,2.91-0.21,4.01c0,2.74,0.29,5.31,0.87,7.71
			c0.58,2.4,1.48,4.49,2.71,6.27c1.23,1.78,2.78,3.19,4.66,4.22c1.88,1.03,4.11,1.54,6.7,1.54c3.07,0,5.61-0.67,7.62-2
			c2.01-1.34,3.58-3.03,4.71-5.09c1.12-2.06,1.91-4.32,2.35-6.79c0.44-2.47,0.66-4.83,0.66-7.09c0-2.47-0.25-4.92-0.77-7.35
			c-0.51-2.43-1.37-4.59-2.56-6.48c-1.19-1.88-2.75-3.43-4.66-4.63C750.01,495.51,747.65,494.91,744.86,494.91z"/>
		<path class="st1" d="M802.15,505.45h-4.2v-4.19c0-0.61-0.02-1.23-0.05-1.84c-0.04-0.61-0.19-1.19-0.46-1.74
			c-0.55-1.23-1.74-2.16-3.58-2.81c-1.84-0.65-3.65-0.97-5.42-0.97c-3.27,0-5.78,0.72-7.52,2.15c-1.74,1.43-2.61,3.31-2.61,5.63
			c0,1.37,0.29,2.56,0.87,3.58c0.58,1.02,1.36,1.93,2.35,2.71c0.99,0.78,2.17,1.5,3.53,2.15c1.36,0.65,2.83,1.28,4.4,1.89
			c1.91,0.75,3.77,1.55,5.58,2.4c1.81,0.85,3.43,1.84,4.86,2.97c1.43,1.12,2.59,2.47,3.48,4.04c0.88,1.57,1.33,3.44,1.33,5.63
			c0,3.89-1.5,7.15-4.5,9.77c-3,2.62-7.5,3.94-13.5,3.94c-0.48,0-1.25-0.04-2.3-0.1c-1.06-0.07-2.25-0.21-3.58-0.41
			c-1.33-0.21-2.75-0.51-4.25-0.92c-1.5-0.41-2.97-0.92-4.4-1.54v-13.71h4.71v4.91c0,0.34,0.02,0.97,0.05,1.89
			c0.03,0.92,0.22,1.69,0.56,2.3c0.75,1.37,2.1,2.35,4.04,2.97c1.94,0.61,3.7,0.92,5.27,0.92c0.61,0,1.6-0.07,2.97-0.21
			c1.36-0.14,2.75-0.51,4.14-1.12c1.4-0.61,2.62-1.55,3.68-2.81c1.06-1.26,1.58-3.05,1.58-5.37c0-1.98-0.75-3.79-2.25-5.42
			c-1.5-1.64-4.26-3.27-8.29-4.91c-2.18-0.88-4.23-1.77-6.14-2.66c-1.91-0.89-3.56-1.88-4.96-2.97c-1.4-1.09-2.51-2.35-3.33-3.79
			c-0.82-1.43-1.23-3.17-1.23-5.22c0-1.5,0.27-3,0.82-4.5c0.54-1.5,1.43-2.85,2.66-4.04c1.23-1.19,2.85-2.15,4.86-2.86
			c2.01-0.72,4.45-1.07,7.31-1.07c3.27,0,5.95,0.32,8.03,0.97c2.08,0.65,3.9,1.35,5.47,2.1V505.45z"/>
	</g>
	<g>
		<path class="st1" d="M197.35,559.71c1.17,0.71,2.7,0.33,3.41-0.83l4.04-6.6c0.71-1.17,0.33-2.7-0.83-3.41
			c-1.16-0.71-2.7-0.33-3.41,0.83l-4.04,6.6C195.81,557.47,196.19,559,197.35,559.71z"/>
		<path class="st1" d="M224.45,459.37c10.07-6.32,22.85-8.62,29.12-9.29c4.2-0.45,7.42-0.76,9.84-0.99l0.74-1.28
			c1.4-2.42,4.51-3.25,6.93-1.86c2.42,1.4,3.25,4.5,1.86,6.93l-1.27,2.2c3.77,12.46,5.75,26.21,3.66,38.3
			c1-0.97,2.03-1.95,3.09-2.95c48.32-45.82,12.66-60.76,9.89-61.72c0,0-20.15-8.39-39.31,1.75
			C237.72,436.43,230.46,447.66,224.45,459.37z"/>
		<path class="st1" d="M254.14,519.49c2.81-0.28,12.43-2.2,16.85-15.42c4.86-14.55,2.28-32.8-2.96-48.49l1.94-3.36
			c0.67-1.16,0.27-2.65-0.89-3.31c-1.15-0.67-2.65-0.27-3.31,0.89l-1.57,2.71c-2.42,0.21-6.62,0.6-13.24,1.3
			c-11.48,1.22-44.85,7.95-43.28,34.74c0.01,0.15,0.22,0.15,0.24,0.01c0.37-4.38,2.55-15.09,14.77-18.4
			c14.89-4.03,34.65-4.85,36.18-4.91c0.06,0,0.1,0.04,0.12,0.09l6.71,30.94c0,0,0,0.01,0,0.01c0.1,0.29,5.67,16.23-11.61,22.96
			C253.96,519.31,254.01,519.5,254.14,519.49z"/>
		<path class="st1" d="M254.97,512.89c0,0,0.66-0.25,2.73-1.83c3.51-2.68,5.1-7.24,4.05-11.56l-6.01-30.03c0,0-13.7,1.16-25.89,2.89
			c-8.35,1.19-13.48,4.63-16.44,10.67l-1,3.36c0,0,9.74,12.07,9.41,32.13C221.82,518.51,238.89,508.82,254.97,512.89z"/>
		<path class="st1" d="M251.83,521.45l0-0.57c0.47-0.64,0.73-0.98,0.73-0.98s-0.26-0.08-0.73-0.19l0-3.21
			c0.03-0.83-0.61-1.53-1.44-1.56c-0.83-0.04-1.53,0.61-1.56,1.43l-0.08,2.83c-1.15-0.12-2.54-0.19-4.09-0.15l-0.53-2.89
			c-0.15-0.81-0.93-1.35-1.75-1.21c-0.81,0.15-1.35,0.93-1.21,1.75l0.47,2.58c-1.23,0.15-2.53,0.39-3.89,0.73l-1.35-3.03
			c-0.34-0.76-1.22-1.1-1.98-0.76c-0.76,0.34-1.1,1.22-0.76,1.98l1.19,2.68c-1.24,0.44-2.52,0.96-3.81,1.6l-1.6-2.69
			c-0.42-0.71-1.34-0.95-2.06-0.52c-0.69,0.41-0.93,1.28-0.56,1.98c0.01,0.03,0.03,0.05,0.04,0.07l1.55,2.61
			c-1.2,0.73-2.41,1.55-3.62,2.49l-1.72-2.47c-0.47-0.68-1.41-0.85-2.09-0.37c-0.63,0.44-0.82,1.26-0.47,1.92
			c0.03,0.06,0.06,0.11,0.1,0.17l1.88,2.7c-1.03,0.93-2.06,1.95-3.08,3.07l-1.71-1.95c-0.55-0.62-1.49-0.69-2.12-0.14
			c-0.53,0.47-0.65,1.22-0.34,1.82c0.05,0.1,0.12,0.2,0.2,0.3l2,2.28c-0.66,0.82-1.31,1.68-1.96,2.58l0.42,0.23
			c0,0,0.01-0.01,0.01-0.01l0.33,0.18c0.07,0.04,0.09,0.1,0.1,0.17c0,0.03,0.01,0.06,0,0.09c-0.36,0.84-2.34,4.44-2.83,7.93
			c-0.54,3.81,0.08,6.49-3.75,8.63c-0.17,0.09-0.36-0.06-0.31-0.24c0.37-1.17,1.06-4.2-0.55-6.6l1.41-2.31
			c0.44-0.72,0.57-1.57,0.37-2.39c-0.2-0.82-0.71-1.51-1.43-1.95c-0.72-0.44-1.57-0.57-2.39-0.37c-0.82,0.2-1.51,0.71-1.95,1.42
			l-1.52,2.5c-2.2-0.06-4.31,0.99-5.58,2.8c-0.12,0.14-0.22,0.28-0.3,0.39c-0.1,0.15-0.32,0.11-0.37-0.06
			c-0.29-1.06-0.63-3.85,2.78-6.13c4.18-2.8,6.28-5.69,7.9-8.15l0.29-0.12l0.31,0.17c0.19-0.49,0.62-1.61,1.11-3.23l3.01,0.73
			c0.12,0.03,0.24,0.04,0.36,0.04c0.68,0,1.29-0.46,1.46-1.15c0.2-0.8-0.3-1.62-1.1-1.81l-2.92-0.71c0.29-1.17,0.58-2.47,0.84-3.89
			l3.47,0.45c0.06,0.01,0.13,0.01,0.19,0.01c0.74,0,1.39-0.55,1.49-1.31c0.11-0.82-0.47-1.57-1.3-1.68l-3.39-0.44
			c0.18-1.32,0.31-2.72,0.4-4.17l3.1,0.17c0.03,0,0.06,0,0.09,0c0.79,0,1.45-0.62,1.5-1.42c0.05-0.83-0.59-1.54-1.41-1.58
			l-3.16-0.18c0.01-1.41-0.03-2.85-0.14-4.33l3-0.19c0.83-0.05,1.46-0.76,1.4-1.59c-0.05-0.83-0.76-1.45-1.59-1.4l-3.14,0.19
			c-0.21-1.49-0.48-3.01-0.85-4.53l2.73-0.84c0.79-0.24,1.23-1.08,0.99-1.88c-0.24-0.79-1.08-1.23-1.88-0.99l-2.65,0.82
			c-0.37-1.16-0.79-2.31-1.27-3.47l2.41-1.39c0.72-0.41,0.96-1.33,0.55-2.05c-0.41-0.72-1.33-0.96-2.05-0.55l-2.06,0.96l0.04,0.59
			c-0.11-0.23-0.22-0.47-0.34-0.7l-26.96,48.2c0,0-8.49,15.8,7.73,28.69c0.56,0.45,1.12,0.87,1.68,1.27l1.14-1.87l-0.85-0.51
			c-0.71-0.42-0.94-1.34-0.52-2.06c0.42-0.71,1.34-0.94,2.06-0.52l0.87,0.52l1.55-2.54c-1.42-1.6-1.72-4-0.56-5.92l5.07-7.99
			c1.13-1.85,3.28-2.71,5.3-2.3l2.04-3.36c0.45-0.73,1.41-0.97,2.15-0.52c0.73,0.45,0.97,1.41,0.52,2.15l-2,3.29
			c1.43,1.6,1.73,4.03,0.56,5.95l-5.07,7.99c-1.15,1.9-3.38,2.73-5.44,2.25l-1.55,2.54l1.33,0.79c0.71,0.42,0.94,1.34,0.52,2.06
			c-0.28,0.47-0.78,0.73-1.29,0.73c-0.26,0-0.53-0.07-0.77-0.21l-1.35-0.81l-1.22,2c14.24,8.74,25.57,2.07,34.49-12.93
			c8.12-13.65,20.51-30.81,24.49-36.25L251.83,521.45z"/>
		<path class="st1" d="M170.13,500.04c0-38.87,31.63-70.5,70.5-70.5c1.1,0,2-0.9,2-2s-0.9-2-2-2c-41.08,0-74.5,33.42-74.5,74.5
			c0,11.66,2.62,22.82,7.78,33.18c0.35,0.7,1.06,1.11,1.79,1.11c0.3,0,0.6-0.07,0.89-0.21c0.99-0.49,1.39-1.69,0.9-2.68
			C172.61,521.64,170.13,511.08,170.13,500.04z"/>
		<path class="st1" d="M307.85,467.87c-0.48-1-1.67-1.42-2.67-0.94c-1,0.48-1.42,1.67-0.94,2.67c4.57,9.54,6.89,19.78,6.89,30.44
			c0,38.87-31.63,70.5-70.5,70.5c-3.21,0-6.43-0.22-9.6-0.65c-1.1-0.15-2.1,0.62-2.25,1.71c-0.15,1.09,0.62,2.1,1.71,2.25
			c3.34,0.45,6.75,0.68,10.14,0.68c41.08,0,74.5-33.42,74.5-74.5C315.13,488.78,312.68,477.95,307.85,467.87z"/>
	</g>
</g>
</svg>
